<?xml version="1.0" encoding="iso-8859-1"?>
<!-- Generator: Adobe Illustrator 19.0.0, SVG Export Plug-In . SVG Version: 6.00 Build 0)  -->
<svg xmlns="http://www.w3.org/2000/svg" xmlns:xlink="http://www.w3.org/1999/xlink" version="1.1" id="Layer_1" x="0px" y="0px" viewBox="0 0 512 512" style="enable-background:new 0 0 512 512;" xml:space="preserve">
<path style="fill:#CE9B57;" d="M137.487,155.268c-18.426,1.573-32.893,17.017-32.893,35.851c0,18.833,14.466,34.277,32.893,35.85  V155.268z"/>
<g>
	<path style="fill:#DDAC64;" d="M375.629,155.268c18.423,1.573,32.892,17.017,32.892,35.851c0,18.833-14.468,34.277-32.892,35.85   V155.268z"/>
	<path style="fill:#DDAC64;" d="M297.564,352.766c-1.211,2.07-2.473,4.434-3.791,7.131c0,0-0.043,0.082-0.119,0.226   c-0.006,0.007-0.009,0.014-0.013,0.026c-0.035,0.062-0.08,0.151-0.128,0.239c-0.016,0.027-0.028,0.053-0.045,0.088   c-0.052,0.097-0.11,0.206-0.173,0.326c-0.016,0.028-0.03,0.063-0.046,0.09c-0.292,0.559-0.705,1.362-1.208,2.363   c-0.115,0.226-0.229,0.456-0.353,0.709c-0.117,0.238-0.254,0.511-0.381,0.77c-14.595,27.656-28.356,34.278-39.915,31.607   c-0.089-0.02-0.176-0.055-0.265-0.075c-0.678-0.17-1.353-0.354-2.014-0.579c-5.255-1.799-10.01-5.451-14.127-9.756   c-0.001-0.007-0.003-0.007-0.007-0.007c-1.173-1.233-2.294-2.516-3.361-3.823c-0.043-0.055-0.085-0.109-0.128-0.164   c-0.488-0.6-0.967-1.205-1.432-1.82c-0.105-0.136-0.203-0.278-0.306-0.415c-0.395-0.524-0.791-1.055-1.171-1.587   c-0.24-0.333-0.469-0.673-0.703-1.007c-0.226-0.326-0.459-0.653-0.678-0.981c-0.405-0.6-0.796-1.192-1.176-1.785   c-0.04-0.061-0.081-0.121-0.119-0.184c-1.257-1.963-2.373-3.856-3.339-5.585c-0.43-0.9-0.831-1.731-1.208-2.501   c-0.003-0.006-0.006-0.012-0.008-0.02c-0.349-0.715-0.67-1.355-0.965-1.955c-0.1-0.198-0.207-0.416-0.301-0.6   c-0.02-0.04-0.041-0.088-0.061-0.122c-0.139-0.278-0.256-0.511-0.381-0.749c-0.095-0.191-0.196-0.39-0.283-0.559   c-0.119-0.233-0.222-0.436-0.323-0.633c-0.069-0.129-0.139-0.265-0.199-0.382c-0.387-0.749-0.607-1.159-0.607-1.159   c-3.782-6.94-7.384-14.053-10.83-21.295v61.413h0.01c0.203,41.785,21.875,75.559,48.591,75.559   c26.715,0,48.39-33.774,48.591-75.559h0.009v-61.427C302.324,343.371,299.986,348.107,297.564,352.766z"/>
</g>
<path style="fill:#EFCA83;" d="M284.827,3.269C275.59,1.135,265.936,0.003,256.001,0c-61.44,0.023-112.144,43.216-119.691,99.083  c-0.641,4.736-0.969,9.563-0.969,14.462v5.945v124.223v5.945c0,2.114,0.07,4.21,0.194,6.294h-0.194c0,0-0.048,0.622-0.078,1.768  c0.022,3.072,0.105,6.098,0.245,9.074c1.691,23.935,13.207,82.413,82.725,123.117c0,0,1.687,1.001,4.343,2.776  c10.278,5.88,37.587,17.578,68.698-1.213c1.565-1.011,2.5-1.563,2.5-1.563c1.319-0.86,2.58-1.615,3.791-2.276  c66.142-40.583,77.274-97.348,78.933-120.841c0.139-2.976,0.221-6.003,0.246-9.074c-0.03-1.145-0.078-1.768-0.078-1.768h-0.195  c0.12-2.085,0.195-4.181,0.195-6.294v-5.945V119.49v-5.945c0-4.899-0.331-9.726-0.969-14.462  c-3.122-23.097-13.618-44.028-29.2-60.636"/>
<path style="fill:#E0B063;" d="M244.836,392.687c-2.657-1.776-4.343-2.776-4.343-2.776c-69.517-40.704-81.035-99.182-82.725-123.117  c-0.14-2.976-0.223-6.003-0.245-9.074c0.03-1.145,0.078-1.768,0.078-1.768h0.194c-0.122-2.085-0.194-4.181-0.194-6.294v-5.945  V119.49v-5.945c0-4.899,0.328-9.726,0.969-14.462c7.087-52.457,52.224-93.738,108.571-98.6c-3.669-0.317-7.385-0.482-11.14-0.483  c-61.44,0.023-112.144,43.216-119.691,99.083c-0.641,4.736-0.969,9.563-0.969,14.462v5.945v124.223v5.945  c0,2.114,0.07,4.21,0.194,6.294h-0.194c0,0-0.048,0.622-0.078,1.768c0.022,3.072,0.105,6.098,0.245,9.074  c1.691,23.935,13.207,82.413,82.725,123.117c0,0,1.687,1.001,4.343,2.776c7.501,4.291,24.08,11.667,44.58,8.044  C257.171,398.983,249.356,395.273,244.836,392.687z"/>
<path style="fill:#F9CF8C;" d="M227.216,264.373c0,49.774,13.057,96.491,35.912,136.941c8.711-0.971,18.233-3.854,28.144-9.842  c1.565-1.011,2.5-1.563,2.5-1.563c1.319-0.86,2.58-1.615,3.791-2.276c66.142-40.583,77.274-97.348,78.933-120.841  c0.139-2.976,0.221-6.003,0.246-9.074c-0.03-1.145-0.078-1.768-0.078-1.768h-0.195c0.12-2.085,0.195-4.181,0.195-6.294v-5.945  V119.49v-5.945c0-4.899-0.331-9.726-0.969-14.462c-3.122-23.097-13.618-44.028-29.2-60.636l-2.162-1.233  C273.443,87.767,227.216,170.67,227.216,264.373z"/>
<path style="fill:#935B2A;" d="M376.663,255.952h-0.194c0.12-2.085,0.194-4.181,0.194-6.294v-5.945V234.1  c-4.443,15.332-18.067,50.065-50.293,50.065c-41.354,0-33.524-16.848-70.37-16.848c-36.843,0-29.014,16.848-70.368,16.848  c-32.229,0-45.85-34.733-50.294-50.065v9.613v5.945c0,2.114,0.07,4.21,0.194,6.294h-0.194c0,0-0.048,0.622-0.078,1.768  c0.022,3.072,0.105,6.098,0.245,9.074c1.691,23.935,13.207,82.413,82.725,123.117c0,0,0.178,0.107,0.509,0.308  c0.292,0.178,0.711,0.44,1.222,0.764c0.114,0.071,0.228,0.146,0.352,0.226c0.63,0.402,1.394,0.898,2.249,1.471  c10.273,5.88,37.611,17.601,68.744-1.227c0.126-0.082,0.263-0.169,0.381-0.246c0.124-0.08,0.239-0.155,0.353-0.226  c0.511-0.324,0.931-0.584,1.221-0.764c0.333-0.203,0.511-0.308,0.511-0.308c1.319-0.86,2.58-1.615,3.791-2.276  c66.141-40.583,77.274-97.348,78.933-120.841c0.139-2.976,0.221-6.003,0.246-9.074C376.711,256.574,376.663,255.952,376.663,255.952  z"/>
<path style="fill:#844719;" d="M218.74,390.22c0.006,0.003,0.014,0.009,0.019,0.012c0.112,0.069,0.242,0.148,0.386,0.238  c0.06,0.038,0.115,0.071,0.179,0.112c0.124,0.077,0.264,0.165,0.406,0.256c0.08,0.051,0.146,0.091,0.232,0.146  c0.012,0.008,0.027,0.018,0.04,0.026c0.356,0.226,0.772,0.494,1.222,0.787c0.07,0.046,0.137,0.089,0.21,0.137  c0.356,0.235,0.73,0.481,1.135,0.751c0.29,0.166,0.599,0.339,0.916,0.513c0.073,0.041,0.152,0.083,0.228,0.125  c0.255,0.139,0.52,0.282,0.792,0.425c0.091,0.048,0.18,0.096,0.273,0.144c0.341,0.177,0.691,0.357,1.054,0.539  c0.096,0.047,0.196,0.096,0.294,0.144c0.268,0.132,0.543,0.266,0.824,0.4c0.168,0.08,0.339,0.161,0.513,0.242  c0.225,0.106,0.456,0.21,0.689,0.316c0.191,0.087,0.381,0.174,0.577,0.26c0.361,0.161,0.732,0.321,1.11,0.481  c0.255,0.107,0.518,0.214,0.779,0.321c0.17,0.071,0.343,0.14,0.516,0.21c0.29,0.115,0.581,0.23,0.879,0.344  c0.121,0.047,0.247,0.094,0.37,0.14c1.07,0.403,2.189,0.798,3.361,1.174c0.077,0.024,0.156,0.049,0.234,0.073  c8.312,2.636,19.058,4.338,31.175,2.196c-9.983-1.747-17.798-5.457-22.319-8.044c-2.657-1.776-4.343-2.776-4.343-2.776  c-63.358-37.098-78.535-88.954-82.009-115.972c-13.401-11.48-20.237-29.808-23.144-39.838v9.613v5.945  c0,2.114,0.07,4.21,0.194,6.294h-0.194c0,0-0.048,0.622-0.078,1.768c0.022,3.072,0.105,6.098,0.245,9.074  c1.691,23.935,13.207,82.413,82.725,123.117c0,0,0.176,0.106,0.474,0.287C218.717,390.206,218.727,390.212,218.74,390.22z"/>
<path style="fill:#A06335;" d="M376.47,255.952c0.12-2.085,0.194-4.181,0.194-6.294v-5.945V234.1  c-4.443,15.332-18.067,50.065-50.293,50.065c-41.354,0-33.524-16.848-70.37-16.848c-14.629,0-22.214,2.657-28.633,5.86  c1.443,46.477,14.258,90.084,35.76,128.139c8.722-0.973,18.256-3.861,28.179-9.862c0.126-0.082,0.263-0.169,0.381-0.246  c0.124-0.08,0.239-0.155,0.353-0.226c0.511-0.324,0.931-0.584,1.221-0.764c0.333-0.203,0.511-0.308,0.511-0.308  c1.319-0.86,2.58-1.615,3.791-2.276c66.141-40.583,77.274-97.348,78.933-120.841c0.139-2.976,0.221-6.003,0.246-9.074  c-0.03-1.145-0.078-1.768-0.078-1.768L376.47,255.952L376.47,255.952z"/>
<path style="fill:#935B2A;" d="M315.448,14.724C297.903,5.358,277.616,0.008,256.001,0c-61.44,0.023-112.144,43.216-119.691,99.083  c-0.641,4.736-0.969,9.563-0.969,14.462v5.945v3.189c47.044,7.198,113.05-15.122,162.867-29.354  c75.05-21.443,78.456,68.156,78.456,68.156v-41.992v-5.945c0-4.899-0.331-9.726-0.969-14.462  c-3.669-27.146-17.525-51.299-37.852-68.961"/>
<path style="fill:#844719;" d="M157.601,124.041v-4.552v-5.945c0-4.899,0.328-9.726,0.969-14.462  c7.085-52.441,52.198-93.713,108.523-98.595c-0.219-0.019-0.44-0.033-0.659-0.051c-1.346-0.11-2.698-0.197-4.055-0.264  c-0.45-0.022-0.898-0.045-1.348-0.063C259.363,0.045,257.687,0,256.001,0c-61.44,0.023-112.144,43.216-119.691,99.083  c-0.641,4.736-0.969,9.563-0.969,14.462v5.945v3.189C142.373,123.755,149.836,124.159,157.601,124.041z"/>
<path style="fill:#A06335;" d="M282.323,97.942c5.438-1.597,10.75-3.152,15.884-4.618c75.05-21.443,78.456,68.156,78.456,68.156  v-41.992v-5.945c0-4.899-0.331-9.726-0.969-14.462c-3.226-23.867-14.333-45.418-30.783-62.28  C320.978,53.777,299.843,74.431,282.323,97.942z"/>
<g>
	<circle style="fill:#898790;" cx="200.594" cy="197.142" r="16.299"/>
	<circle style="fill:#898790;" cx="311.42" cy="197.142" r="16.299"/>
	<path style="fill:#898790;" d="M377.145,398.741h-44.811h-1.783h-14.015H304.6v3.971h-0.009   c-0.203,13.334-21.876,24.113-48.591,24.113c-26.716,0-48.39-10.779-48.591-24.113h-0.01v-3.971h-11.935h-14.015h-1.782h-44.812   c-48.553,0-87.913,39.365-87.913,87.915v11.987c0,7.378,5.98,13.357,13.357,13.357h79.104h27.27H451.7   c7.376,0,13.357-5.978,13.357-13.357v-11.987C465.059,438.106,425.698,398.741,377.145,398.741z"/>
</g>
<g>
	<path style="fill:#DDAC64;" d="M273.275,312.615h-34.548c-4.611,0-8.348-3.736-8.348-8.348c0-4.611,3.736-8.348,8.348-8.348h34.547   c4.61,0,8.348,3.736,8.348,8.348C281.623,308.878,277.884,312.615,273.275,312.615z"/>
	<path style="fill:#DDAC64;" d="M256.001,249.133c-4.61,0-8.348-3.736-8.348-8.348v-22.456c0-4.611,3.738-8.348,8.348-8.348   s8.348,3.736,8.348,8.348v22.456C264.348,245.396,260.611,249.133,256.001,249.133z"/>
</g>
<g>
	<path style="fill:#935B2A;" d="M224.127,168.234c-1.617,0-3.255-0.471-4.694-1.451c-18.287-12.467-37.581-2.327-38.393-1.89   c-4.044,2.179-9.107,0.693-11.306-3.337c-2.203-4.031-0.755-9.071,3.265-11.293c1.169-0.647,28.927-15.62,55.84,2.725   c3.809,2.597,4.793,7.79,2.196,11.6C229.419,166.958,226.798,168.234,224.127,168.234z"/>
	<path style="fill:#935B2A;" d="M289.078,168.234c-2.667,0-5.289-1.276-6.904-3.646c-2.598-3.81-1.615-9.003,2.196-11.6   c26.909-18.342,54.67-3.37,55.839-2.726c4.035,2.232,5.496,7.31,3.266,11.345c-2.226,4.024-7.283,5.49-11.311,3.283   c-0.885-0.476-20.139-10.552-38.391,1.892C292.335,167.763,290.697,168.234,289.078,168.234z"/>
</g>
<path style="fill:#56565B;" d="M70.165,498.152v-11.987c0-48.55,39.361-87.915,87.913-87.915h-23.22  c-48.553,0-87.913,39.365-87.913,87.915v11.987c0,7.378,5.98,13.357,13.357,13.357h23.22  C76.145,511.508,70.165,505.529,70.165,498.152z"/>
<path style="fill:#A3A2AA;" d="M377.144,398.249h-44.811h-1.783h-14.015h-11.935v3.971h-0.01  c-0.128,8.488-8.963,15.934-22.253,20.231c24.319,36.703,57.088,67.312,95.538,89.057h73.827c7.376,0,13.357-5.978,13.357-13.357  v-11.987C465.059,437.614,425.698,398.249,377.144,398.249z"/>
<g>
</g>
<g>
</g>
<g>
</g>
<g>
</g>
<g>
</g>
<g>
</g>
<g>
</g>
<g>
</g>
<g>
</g>
<g>
</g>
<g>
</g>
<g>
</g>
<g>
</g>
<g>
</g>
<g>
</g>
</svg>
